<?xml version="1.0" encoding="UTF-8"?>
<svg id="Layer_2" data-name="Layer 2" xmlns="http://www.w3.org/2000/svg" viewBox="0 0 302.89 337.99">
  <defs>
    <style>
      .cls-1 {
        fill: none;
        stroke: #000;
        stroke-miterlimit: 10;
        stroke-width: 19px;
      }
    </style>
  </defs>
  <g id="Layer_2-2" data-name="Layer 2">
    <g>
      <path d="M285.5,77.82l-30.57,254.51c-.34,2.72-1.93,4.75-4.51,5.67l-198.19-.11c-2.47-.91-3.93-2.98-4.27-5.56L17.39,77.81h268.11ZM71.35,103.86c-3.46.41-5.89,3.65-5.54,7.1,9.56,60.85,17.86,121.9,27.43,182.75.53,3.37,1.42,12.77,2.68,15.22,2.97,5.76,11.96,3.59,11.97-3.19-9.55-60.74-17.86-121.68-27.39-182.43-.69-4.39-1.14-9.81-2.15-14-.78-3.23-3.51-5.86-7-5.45h0ZM150.66,103.86c-2.9.4-5.47,3.06-5.54,6.05v196.16c.73,8.2,11.93,8.2,12.66,0V109.91c-.08-3.55-3.66-6.53-7.12-6.05ZM229.97,103.86c-2.53.36-5.1,2.9-5.43,5.46l-29.54,196.42c.7,8.78,12.18,8.57,12.84-.14l29.19-194.32c.72-4.12-2.87-8.03-7.06-7.43h0Z"/>
      <path d="M5.01,39.89l292.54-.03c2.94.38,4.64,1.44,4.94,2.9,1.25,6.04-.9,13.1-.03,19.25-.49,1.62-2.52,2.62-5.89,2.77l-290.92-.02c-3.36-.3-5.02-1.44-5.3-3.05-1.07-6.04.82-12.82.02-18.94.29-1.41,1.87-2.43,4.66-2.87h0Z"/>
      <path class="cls-1" d="M96.64,40.09v-23.23c0-4.07,3.3-7.37,7.37-7.37h94.87c4.07,0,7.37,3.3,7.37,7.37v23.23"/>
    </g>
  </g>
</svg>