<?xml version="1.0" encoding="UTF-8"?>
<svg id="Layer_2" data-name="Layer 2" xmlns="http://www.w3.org/2000/svg" viewBox="0 0 313.86 323.74">
  <g id="Layer_2-2" data-name="Layer 2">
    <path d="M156.93,236.32c-41.05,0-74.45-33.4-74.45-74.45s33.4-74.45,74.45-74.45,74.45,33.4,74.45,74.45-33.4,74.45-74.45,74.45h0ZM305.76,195.46l-18.19-10.5c1.39-7.75,2.1-15.47,2.1-23.09s-.71-15.35-2.1-23.09l18.19-10.5c7.75-4.47,10.4-14.37,5.93-22.11l-29.14-50.46c-4.49-7.76-14.42-10.4-22.11-5.93l-18.18,10.5c-11.85-9.96-25.4-17.75-40.01-23.05v-21.04c0-8.95-7.24-16.19-16.19-16.19h-58.27c-8.95,0-16.19,7.24-16.19,16.19v21.04c-14.61,5.3-28.15,13.09-40.01,23.05l-18.18-10.5c-7.73-4.47-17.64-1.83-22.11,5.93L2.17,106.16c-4.47,7.75-1.82,17.64,5.93,22.11l18.19,10.5c-1.39,7.75-2.1,15.48-2.1,23.09s.71,15.35,2.1,23.09l-18.19,10.5c-7.75,4.47-10.4,14.37-5.93,22.11l29.13,50.46c4.47,7.76,14.38,10.37,22.11,5.93l18.18-10.5c11.86,9.96,25.4,17.75,40.01,23.05v21.04c0,8.94,7.24,16.19,16.19,16.19h58.27c8.95,0,16.19-7.24,16.19-16.19v-21.04c14.6-5.29,28.15-13.09,40.01-23.05l18.18,10.5c7.7,4.44,17.63,1.83,22.11-5.93l29.14-50.46c4.47-7.75,1.82-17.64-5.93-22.11h0Z"/>
  </g>
</svg>